<svg xmlns="http://www.w3.org/2000/svg" version="1.1" xmlns:xlink="http://www.w3.org/1999/xlink" xmlns:svgjs="http://svgjs.dev/svgjs" width="1000" height="1000" viewBox="0 0 1000 1000"><rect width="1000" height="1000" fill="#fca311"></rect><g transform="matrix(0.7,0,0,0.7,149.57575757575762,405.33577532168505)"><svg viewBox="0 0 396 107" data-background-color="#fca311" preserveAspectRatio="xMidYMid meet" height="270" width="1000" xmlns="http://www.w3.org/2000/svg" xmlns:xlink="http://www.w3.org/1999/xlink"><g id="tight-bounds" transform="matrix(1,0,0,1,0.23999999999995225,0.09297375968094457)"><svg viewBox="0 0 395.52 106.8140524806381" height="106.8140524806381" width="395.52"><g><svg viewBox="0 0 688.0782227077814 185.82226787796608" height="106.8140524806381" width="395.52"><g><rect width="7.718077898561086" height="185.82226787796608" x="264.6357524046102" y="0" fill="#252525" opacity="1" stroke-width="0" stroke="transparent" fill-opacity="1" class="rect-s$-0" data-fill-palette-color="primary" rx="1%" id="s$-0" data-palette-color="#252525"></rect></g><g transform="matrix(1,0,0,1,292.55822270778145,0.4622444474576213)"><svg viewBox="0 0 395.52000000000004 184.89777898305084" height="184.89777898305084" width="395.52000000000004"><g id="textblocktransform"><svg viewBox="0 0 395.52000000000004 184.89777898305084" height="184.89777898305084" width="395.52000000000004" id="textblock"><g><svg viewBox="0 0 395.52000000000004 184.89777898305084" height="184.89777898305084" width="395.52000000000004"><g transform="matrix(1,0,0,1,0,0)"><svg width="395.52000000000004" viewBox="0.34000000000000363 -35.59999999999999 172.85 77.45999999999998" height="184.89777898305084" data-palette-color="#252525"><svg></svg><svg></svg><g class="undefined-text-0" data-fill-palette-color="primary" id="text-0"><path d="M25.44-34.33v0l-1.37 10.31c-0.473-0.133-0.943-0.223-1.41-0.27-0.473-0.053-0.947-0.08-1.42-0.08v0c-1.207 0-2.353 0.16-3.44 0.48-1.093 0.32-2.06 0.803-2.9 1.45-0.833 0.653-1.5 1.467-2 2.44-0.493 0.98-0.74 2.13-0.74 3.45v0c0 0.847 0.133 1.577 0.4 2.19 0.267 0.62 0.647 1.133 1.14 1.54 0.487 0.407 1.063 0.71 1.73 0.91 0.667 0.193 1.4 0.29 2.2 0.29v0c0.6 0 1.227-0.067 1.88-0.2 0.647-0.127 1.29-0.297 1.93-0.51 0.633-0.213 1.25-0.457 1.85-0.73 0.6-0.28 1.153-0.567 1.66-0.86v0l-0.98 11.48c-0.633 0.327-1.32 0.617-2.06 0.87-0.74 0.247-1.5 0.463-2.28 0.65-0.78 0.193-1.56 0.337-2.34 0.43-0.787 0.1-1.537 0.15-2.25 0.15v0c-2.067 0-3.997-0.383-5.79-1.15-1.787-0.767-3.34-1.817-4.66-3.15-1.32-1.333-2.357-2.907-3.11-4.72-0.76-1.813-1.14-3.77-1.14-5.87v0c0-2.787 0.4-5.413 1.2-7.88 0.793-2.467 1.963-4.627 3.51-6.48 1.547-1.853 3.463-3.317 5.75-4.39 2.287-1.08 4.92-1.62 7.9-1.62v0c1.127 0 2.28 0.09 3.46 0.27 1.18 0.18 2.273 0.513 3.28 1zM55.18-34.81l0.78 34.81-12.21 0.59-0.1-11.28h-5.61l-0.34 10.69h-10.94l0.93-34.33 11.62 0.54-0.74 17.53h5.42l0.05-18.85zM88.45-17.24v0c0 1.487-0.17 2.917-0.51 4.29-0.34 1.373-0.833 2.663-1.48 3.87-0.64 1.2-1.42 2.303-2.34 3.31-0.92 1-1.953 1.857-3.1 2.57-1.147 0.72-2.397 1.277-3.75 1.67-1.353 0.4-2.787 0.6-4.3 0.6v0c-1.46 0-2.853-0.187-4.18-0.56-1.327-0.373-2.57-0.897-3.73-1.57-1.153-0.68-2.197-1.497-3.13-2.45-0.94-0.947-1.74-2.003-2.4-3.17-0.66-1.16-1.17-2.41-1.53-3.75-0.367-1.333-0.55-2.723-0.55-4.17v0c0-1.42 0.17-2.807 0.51-4.16 0.34-1.36 0.833-2.643 1.48-3.85 0.64-1.207 1.417-2.313 2.33-3.32 0.907-1.007 1.927-1.877 3.06-2.61 1.133-0.733 2.36-1.303 3.68-1.71 1.313-0.407 2.703-0.61 4.17-0.61v0c2.36 0 4.513 0.367 6.46 1.1 1.947 0.733 3.607 1.777 4.98 3.13 1.373 1.36 2.44 3.007 3.2 4.94 0.753 1.927 1.13 4.077 1.13 6.45zM77.61-16.6v0c0-0.7-0.1-1.38-0.3-2.04-0.207-0.66-0.503-1.247-0.89-1.76-0.393-0.513-0.88-0.927-1.46-1.24-0.573-0.32-1.237-0.48-1.99-0.48v0c-0.76 0-1.443 0.14-2.05 0.42-0.6 0.273-1.117 0.65-1.55 1.13-0.427 0.48-0.757 1.043-0.99 1.69-0.227 0.64-0.34 1.317-0.34 2.03v0c0 0.687 0.097 1.373 0.29 2.06 0.2 0.68 0.493 1.297 0.88 1.85 0.393 0.553 0.88 1 1.46 1.34 0.573 0.347 1.243 0.52 2.01 0.52v0c0.767 0 1.453-0.153 2.06-0.46 0.613-0.3 1.13-0.707 1.55-1.22 0.427-0.513 0.753-1.103 0.98-1.77 0.227-0.667 0.34-1.357 0.34-2.07zM114.36-34.33v0l-1.37 10.31c-0.473-0.133-0.947-0.223-1.42-0.27-0.473-0.053-0.943-0.08-1.41-0.08v0c-1.207 0-2.357 0.16-3.45 0.48-1.087 0.32-2.05 0.803-2.89 1.45-0.84 0.653-1.507 1.467-2 2.44-0.5 0.98-0.75 2.13-0.75 3.45v0c0 0.847 0.137 1.577 0.41 2.19 0.267 0.62 0.643 1.133 1.13 1.54 0.487 0.407 1.067 0.71 1.74 0.91 0.667 0.193 1.397 0.29 2.19 0.29v0c0.607 0 1.233-0.067 1.88-0.2 0.653-0.127 1.297-0.297 1.93-0.51 0.633-0.213 1.253-0.457 1.86-0.73 0.6-0.28 1.153-0.567 1.66-0.86v0l-0.98 11.48c-0.633 0.327-1.32 0.617-2.06 0.87-0.74 0.247-1.503 0.463-2.29 0.65-0.78 0.193-1.56 0.337-2.34 0.43-0.78 0.1-1.527 0.15-2.24 0.15v0c-2.073 0-4.003-0.383-5.79-1.15-1.793-0.767-3.347-1.817-4.66-3.15-1.32-1.333-2.36-2.907-3.12-4.72-0.753-1.813-1.13-3.77-1.13-5.87v0c0-2.787 0.397-5.413 1.19-7.88 0.8-2.467 1.973-4.627 3.52-6.48 1.547-1.853 3.463-3.317 5.75-4.39 2.287-1.08 4.92-1.62 7.9-1.62v0c1.12 0 2.27 0.09 3.45 0.27 1.18 0.18 2.277 0.513 3.29 1zM145.78-17.24v0c0 1.487-0.173 2.917-0.52 4.29-0.34 1.373-0.83 2.663-1.47 3.87-0.647 1.2-1.43 2.303-2.35 3.31-0.92 1-1.953 1.857-3.1 2.57-1.147 0.72-2.397 1.277-3.75 1.67-1.347 0.4-2.777 0.6-4.29 0.6v0c-1.467 0-2.863-0.187-4.19-0.56-1.327-0.373-2.567-0.897-3.72-1.57-1.16-0.68-2.207-1.497-3.14-2.45-0.933-0.947-1.73-2.003-2.39-3.17-0.66-1.16-1.173-2.41-1.54-3.75-0.367-1.333-0.55-2.723-0.55-4.17v0c0-1.42 0.17-2.807 0.51-4.16 0.347-1.36 0.84-2.643 1.48-3.85 0.64-1.207 1.417-2.313 2.33-3.32 0.913-1.007 1.937-1.877 3.07-2.61 1.127-0.733 2.35-1.303 3.67-1.71 1.32-0.407 2.71-0.61 4.17-0.61v0c2.36 0 4.513 0.367 6.46 1.1 1.947 0.733 3.607 1.777 4.98 3.13 1.38 1.36 2.447 3.007 3.2 4.94 0.76 1.927 1.14 4.077 1.14 6.45zM134.94-16.6v0c0-0.7-0.103-1.38-0.31-2.04-0.2-0.66-0.497-1.247-0.89-1.76-0.393-0.513-0.877-0.927-1.45-1.24-0.58-0.32-1.243-0.48-1.99-0.48v0c-0.767 0-1.45 0.14-2.05 0.42-0.607 0.273-1.123 0.65-1.55 1.13-0.433 0.48-0.763 1.043-0.99 1.69-0.227 0.64-0.34 1.317-0.34 2.03v0c0 0.687 0.097 1.373 0.29 2.06 0.193 0.68 0.487 1.297 0.88 1.85 0.387 0.553 0.87 1 1.45 1.34 0.58 0.347 1.25 0.52 2.01 0.52v0c0.767 0 1.457-0.153 2.07-0.46 0.607-0.3 1.123-0.707 1.55-1.22 0.42-0.513 0.743-1.103 0.97-1.77 0.233-0.667 0.35-1.357 0.35-2.07z" fill="#252525" fill-rule="nonzero" stroke="none" stroke-width="1" stroke-linecap="butt" stroke-linejoin="miter" stroke-miterlimit="10" stroke-dasharray="" stroke-dashoffset="0" font-family="none" font-weight="none" font-size="none" text-anchor="none" style="mix-blend-mode: normal" data-fill-palette-color="primary" opacity="1"></path><path transform="translate(0,40.4)" d="M25.44-34.33v0l-1.37 10.31c-0.473-0.133-0.943-0.223-1.41-0.27-0.473-0.053-0.947-0.08-1.42-0.08v0c-1.207 0-2.353 0.16-3.44 0.48-1.093 0.32-2.06 0.803-2.9 1.45-0.833 0.653-1.5 1.467-2 2.44-0.493 0.98-0.74 2.13-0.74 3.45v0c0 0.847 0.133 1.577 0.4 2.19 0.267 0.62 0.647 1.133 1.14 1.54 0.487 0.407 1.063 0.71 1.73 0.91 0.667 0.193 1.4 0.29 2.2 0.29v0c0.6 0 1.227-0.067 1.88-0.2 0.647-0.127 1.29-0.297 1.93-0.51 0.633-0.213 1.25-0.457 1.85-0.73 0.6-0.28 1.153-0.567 1.66-0.86v0l-0.98 11.48c-0.633 0.327-1.32 0.617-2.06 0.87-0.74 0.247-1.5 0.463-2.28 0.65-0.78 0.193-1.56 0.337-2.34 0.43-0.787 0.1-1.537 0.15-2.25 0.15v0c-2.067 0-3.997-0.383-5.79-1.15-1.787-0.767-3.34-1.817-4.66-3.15-1.32-1.333-2.357-2.907-3.11-4.72-0.76-1.813-1.14-3.77-1.14-5.87v0c0-2.787 0.4-5.413 1.2-7.88 0.793-2.467 1.963-4.627 3.51-6.48 1.547-1.853 3.463-3.317 5.75-4.39 2.287-1.08 4.92-1.62 7.9-1.62v0c1.127 0 2.28 0.09 3.46 0.27 1.18 0.18 2.273 0.513 3.28 1zM48.44-13.92v0l-1.03 10.84-20.55 1.62c0.093-5.687 0.203-11.337 0.33-16.95 0.12-5.613 0.27-11.26 0.45-16.94v0h12.69c-0.373 3.567-0.73 7.127-1.07 10.68-0.34 3.553-0.583 7.137-0.73 10.75v0c0.76 0.033 1.517 0.05 2.27 0.05 0.747 0 1.503 0 2.27 0v0c0.907 0 1.8-0.007 2.68-0.02 0.88-0.02 1.777-0.03 2.69-0.03zM49.78-33.69l12.99-0.69-2.69 33.26-10.3 0.53zM88.38-34.33v0l-1.37 10.31c-0.473-0.133-0.943-0.223-1.41-0.27-0.473-0.053-0.947-0.08-1.42-0.08v0c-1.207 0-2.353 0.16-3.44 0.48-1.093 0.32-2.06 0.803-2.9 1.45-0.833 0.653-1.5 1.467-2 2.44-0.493 0.98-0.74 2.13-0.74 3.45v0c0 0.847 0.133 1.577 0.4 2.19 0.267 0.62 0.647 1.133 1.14 1.54 0.487 0.407 1.063 0.71 1.73 0.91 0.667 0.193 1.4 0.29 2.2 0.29v0c0.6 0 1.227-0.067 1.88-0.2 0.647-0.127 1.29-0.297 1.93-0.51 0.633-0.213 1.25-0.457 1.85-0.73 0.6-0.28 1.153-0.567 1.66-0.86v0l-0.98 11.48c-0.633 0.327-1.32 0.617-2.06 0.87-0.74 0.247-1.5 0.463-2.28 0.65-0.78 0.193-1.563 0.337-2.35 0.43-0.78 0.1-1.527 0.15-2.24 0.15v0c-2.067 0-3.997-0.383-5.79-1.15-1.787-0.767-3.34-1.817-4.66-3.15-1.32-1.333-2.357-2.907-3.11-4.72-0.76-1.813-1.14-3.77-1.14-5.87v0c0-2.787 0.4-5.413 1.2-7.88 0.793-2.467 1.963-4.627 3.51-6.48 1.547-1.853 3.463-3.317 5.75-4.39 2.287-1.08 4.92-1.62 7.9-1.62v0c1.127 0 2.28 0.09 3.46 0.27 1.18 0.18 2.273 0.513 3.28 1zM108.57-35.94l12.3 0.98-11.76 16.26 9.91 17.28-11.33 2.01-7.42-10.55-0.39 11.03-10.16 0.39 0.78-37.4 11.38 0.64-0.88 11.03zM121.24-35.21h22.51c-0.1 1.533-0.19 3.05-0.27 4.55-0.08 1.493-0.187 3.007-0.32 4.54v0l-10.35 0.53-0.24 3.08h7.27l-0.53 7.57-7.33 0.24-0.24 3.57h6.05 4.3c-0.1 1.787-0.203 3.563-0.31 5.33-0.1 1.767-0.193 3.537-0.28 5.31v0l-21.04 0.49zM173.19-23.54v0c0 1.273-0.11 2.427-0.33 3.46-0.22 1.033-0.563 1.98-1.03 2.84-0.473 0.867-1.083 1.667-1.83 2.4-0.753 0.727-1.657 1.427-2.71 2.1v0l5.81 10.35-10.99 2.15-3.76-10.4-3.03 0.09-0.44 10.16h-10.5c0.087-3.713 0.167-7.407 0.24-11.08 0.073-3.68 0.157-7.377 0.25-11.09v0c0.033-1.873 0.067-3.73 0.1-5.57 0.033-1.833 0.1-3.687 0.2-5.56v0c1.14-0.427 2.263-0.777 3.37-1.05 1.107-0.28 2.217-0.497 3.33-0.65 1.113-0.153 2.243-0.26 3.39-0.32 1.147-0.053 2.323-0.08 3.53-0.08v0c1.853 0 3.647 0.257 5.38 0.77 1.733 0.513 3.267 1.283 4.6 2.31 1.34 1.02 2.41 2.297 3.21 3.83 0.807 1.527 1.21 3.307 1.21 5.34zM162.26-22.75v0c0-0.687-0.093-1.313-0.28-1.88-0.193-0.573-0.47-1.067-0.83-1.48-0.367-0.413-0.823-0.74-1.37-0.98-0.547-0.233-1.187-0.35-1.92-0.35v0c-0.327 0-0.643 0.02-0.95 0.06-0.307 0.04-0.607 0.1-0.9 0.18v0l-0.39 9.08h0.58c0.7 0 1.413-0.087 2.14-0.26 0.72-0.18 1.37-0.457 1.95-0.83 0.58-0.38 1.053-0.86 1.42-1.44 0.367-0.587 0.55-1.287 0.55-2.1z" fill="#252525" fill-rule="nonzero" stroke="none" stroke-width="1" stroke-linecap="butt" stroke-linejoin="miter" stroke-miterlimit="10" stroke-dasharray="" stroke-dashoffset="0" font-family="none" font-weight="none" font-size="none" text-anchor="none" style="mix-blend-mode: normal" data-fill-palette-color="primary" opacity="1"></path></g></svg></g></svg></g></svg></g></svg></g><g transform="matrix(1,0,0,1,0,5.44645048375088)"><svg viewBox="0 0 244.43135999999998 174.92936691046432" height="174.92936691046432" width="244.43135999999998"><g><svg xmlns="http://www.w3.org/2000/svg" xmlns:xlink="http://www.w3.org/1999/xlink" version="1.1" x="0" y="0" viewBox="6 13.299999999999999 58.687213595499955 42.00000000000001" enable-background="new 0 0 70.7 70.7" xml:space="preserve" height="174.92936691046432" width="244.43135999999998" class="icon-icon-0" data-fill-palette-color="accent" id="icon-0"><path d="M63.8 28.2l-0.3-0.7-0.8 0.1c-3.2 0.6-6.3 0.8-7.9 0.9 0-5-1.3-8.9-3.8-11.6-3.2-3.4-7.5-3.6-8.7-3.6-0.2 0-0.4 0-0.4 0l-24.4 8.2c-1.9 0.8-3.5 1.6-4.8 2.6C8.1 27.2 6 31.7 6 38.2c0 9.6 8.3 17.1 18.9 17.1 7.9 0 10.1-0.4 12.8-0.9 0.8-0.1 1.7-0.3 2.8-0.5l0.2 0L64.6 38l0-0.5C65 30.9 63.9 28.3 63.8 28.2zM61.9 29.8L39.2 44.6c-2 0.5-6.4 1-9.8 1.4 0.7-0.2 1.3-0.5 1.7-0.6 8-3.7 21.4-13.7 22.9-14.9C54.7 30.5 58.1 30.4 61.9 29.8zM42.2 15.3c0.7 0 4.6 0.1 7.4 3 2.3 2.4 3.4 6.2 3.2 11.2l0 0.7c-3 2.3-14.9 10.9-22.1 14.3-0.2 0.1-0.6 0.2-1 0.4 0.2-0.2 0.3-0.3 0.4-0.5 3.9-5.1 3.9-10.9 0.1-15.7-2.4-3.1-6.5-5.4-10.8-5.7L42.2 15.3zM37.4 52.4c-2.5 0.5-4.7 0.8-12.4 0.8C15.4 53.3 8 46.6 8 38.2c0-5.8 1.8-9.7 5.8-12.5 0.8-0.5 1.7-1 2.6-1.5 5.1-1 10.2 1.5 13 5.1 3.5 4.4 3.4 9.8-0.1 14.5C27.6 46 24 47 20.4 46.2c-3.4-0.7-8.2-4.3-6.9-10.9 0.4-2.1 1.7-4 3.5-5.1 1.1-0.7 2.9-1.3 5.3-0.5 3.4 1.1 5 4 4.2 7.6-0.3 1.7-1.4 2.8-2.9 3-1.4 0.2-3-0.3-3.6-1.4-0.6-1-0.4-2.2 0.7-3.5 0.2-0.2 0.1-0.5-0.1-0.7-0.2-0.2-0.5-0.1-0.7 0.1-1.7 2.2-1.2 3.9-0.7 4.7 0.8 1.4 2.8 2.2 4.6 1.9 1.9-0.3 3.3-1.7 3.7-3.8 1-4.9-1.9-7.8-4.9-8.8-2.1-0.7-4.2-0.5-6.1 0.6-2 1.2-3.5 3.3-4 5.8-1.4 7.3 4 11.3 7.7 12.1 0.8 0.2 1.7 0.3 2.5 0.3 0.5 0 1 0 1.4-0.1 0.1 0.1 0.2 0.1 0.3 0.1 0 0 0 0 0 0 0.4 0 10.4-0.9 14.4-1.8l0.8 6.3C38.8 52.2 38.1 52.3 37.4 52.4zM62.6 36.9L40.7 51.5 40 45.3l22.4-14.6C62.6 31.9 62.8 34 62.6 36.9z" fill="#252525" data-fill-palette-color="accent"></path></svg></g></svg></g></svg></g><defs></defs></svg><rect width="395.52" height="106.8140524806381" fill="none" stroke="none" visibility="hidden"></rect></g></svg></g></svg>