<svg xmlns="http://www.w3.org/2000/svg" version="1.1" xmlns:xlink="http://www.w3.org/1999/xlink" xmlns:svgjs="http://svgjs.dev/svgjs" width="1000" height="1000" viewBox="0 0 1000 1000"><rect width="1000" height="1000" fill="#fca311"></rect><g transform="matrix(0.7,0,0,0.7,149.57575757575756,383.2640517529867)"><svg viewBox="0 0 396 132" data-background-color="#fca311" preserveAspectRatio="xMidYMid meet" height="333" width="1000" xmlns="http://www.w3.org/2000/svg" xmlns:xlink="http://www.w3.org/1999/xlink"><g id="tight-bounds" transform="matrix(1,0,0,1,0.2400000000000091,0.10529887861756038)"><svg viewBox="0 0 395.52 131.78940224276488" height="131.78940224276488" width="395.52"><g><svg viewBox="0 0 397.4975999999999 132.44834925397868" height="131.78940224276488" width="395.52"><g><rect width="397.4975999999999" height="4.0567180045889" x="0" y="72.78779025275725" fill="#252525" opacity="1" stroke-width="0" stroke="transparent" fill-opacity="1" class="rect-s$-0" data-fill-palette-color="secondary" rx="1%" id="s$-0" data-palette-color="#252525"></rect></g><g transform="matrix(1,0,0,1,0.9887999999999693,87.46418889763123)"><svg viewBox="0 0 395.52 44.98416035634744" height="44.98416035634744" width="395.52"><g id="textblocktransform"><svg viewBox="0 0 395.52 44.98416035634744" height="44.98416035634744" width="395.52" id="textblock"><g><svg viewBox="0 0 395.52 44.98416035634744" height="44.98416035634744" width="395.52"><g transform="matrix(1,0,0,1,0,0)"><svg width="395.52" viewBox="0.34 -35.94 328.83000000000004 37.4" height="44.98416035634744" data-palette-color="#252525"><path d="M25.44-34.33L25.44-34.33 24.07-24.02Q23.36-24.22 22.66-24.29 21.95-24.37 21.24-24.37L21.24-24.37Q19.43-24.37 17.8-23.89 16.16-23.41 14.9-22.44 13.65-21.46 12.9-20 12.16-18.53 12.16-16.55L12.16-16.55Q12.16-15.28 12.56-14.36 12.96-13.43 13.7-12.82 14.43-12.21 15.43-11.91 16.43-11.62 17.63-11.62L17.63-11.62Q18.53-11.62 19.51-11.82 20.48-12.01 21.44-12.33 22.39-12.65 23.29-13.06 24.19-13.48 24.95-13.92L24.95-13.92 23.97-2.44Q23.02-1.95 21.91-1.57 20.8-1.2 19.63-0.92 18.46-0.63 17.29-0.49 16.11-0.34 15.04-0.34L15.04-0.34Q11.94-0.34 9.25-1.49 6.57-2.64 4.59-4.64 2.61-6.64 1.48-9.36 0.34-12.08 0.34-15.23L0.34-15.23Q0.34-19.41 1.54-23.11 2.73-26.81 5.05-29.59 7.37-32.37 10.8-33.98 14.23-35.6 18.7-35.6L18.7-35.6Q20.39-35.6 22.16-35.33 23.93-35.06 25.44-34.33ZM55.17-34.81L55.95 0 43.75 0.59 43.65-10.69 38.03-10.69 37.69 0 26.76 0 27.68-34.33 39.3-33.79 38.57-16.26 43.99-16.26 44.04-35.11 55.17-34.81ZM88.45-17.24L88.45-17.24Q88.45-15.01 87.93-12.95 87.42-10.89 86.46-9.08 85.49-7.28 84.11-5.77 82.73-4.27 81.01-3.2 79.29-2.12 77.27-1.53 75.24-0.93 72.97-0.93L72.97-0.93Q70.77-0.93 68.78-1.49 66.79-2.05 65.06-3.06 63.33-4.08 61.92-5.51 60.52-6.93 59.53-8.68 58.54-10.42 57.99-12.43 57.44-14.43 57.44-16.6L57.44-16.6Q57.44-18.73 57.95-20.76 58.47-22.8 59.43-24.61 60.4-26.42 61.76-27.93 63.13-29.44 64.83-30.54 66.52-31.64 68.5-32.25 70.48-32.86 72.68-32.86L72.68-32.86Q76.22-32.86 79.13-31.76 82.05-30.66 84.11-28.63 86.18-26.59 87.31-23.69 88.45-20.8 88.45-17.24ZM77.61-16.6L77.61-16.6Q77.61-17.65 77.3-18.64 77-19.63 76.41-20.4 75.83-21.17 74.96-21.64 74.09-22.12 72.97-22.12L72.97-22.12Q71.82-22.12 70.92-21.7 70.01-21.29 69.37-20.57 68.72-19.85 68.38-18.88 68.04-17.92 68.04-16.85L68.04-16.85Q68.04-15.82 68.33-14.79 68.62-13.77 69.21-12.94 69.79-12.11 70.66-11.6 71.53-11.08 72.68-11.08L72.68-11.08Q73.82-11.08 74.74-11.54 75.65-11.99 76.29-12.76 76.92-13.53 77.27-14.53 77.61-15.53 77.61-16.6ZM114.35-34.33L114.35-34.33 112.98-24.02Q112.27-24.22 111.56-24.29 110.86-24.37 110.15-24.37L110.15-24.37Q108.34-24.37 106.71-23.89 105.07-23.41 103.81-22.44 102.56-21.46 101.81-20 101.07-18.53 101.07-16.55L101.07-16.55Q101.07-15.28 101.47-14.36 101.87-13.43 102.6-12.82 103.34-12.21 104.34-11.91 105.34-11.62 106.54-11.62L106.54-11.62Q107.44-11.62 108.42-11.82 109.39-12.01 110.34-12.33 111.3-12.65 112.2-13.06 113.1-13.48 113.86-13.92L113.86-13.92 112.88-2.44Q111.93-1.95 110.82-1.57 109.71-1.2 108.54-0.92 107.37-0.63 106.19-0.49 105.02-0.34 103.95-0.34L103.95-0.34Q100.85-0.34 98.16-1.49 95.48-2.64 93.5-4.64 91.52-6.64 90.39-9.36 89.25-12.08 89.25-15.23L89.25-15.23Q89.25-19.41 90.45-23.11 91.64-26.81 93.96-29.59 96.28-32.37 99.71-33.98 103.14-35.6 107.61-35.6L107.61-35.6Q109.29-35.6 111.06-35.33 112.83-35.06 114.35-34.33ZM145.77-17.24L145.77-17.24Q145.77-15.01 145.25-12.95 144.74-10.89 143.78-9.08 142.81-7.28 141.43-5.77 140.05-4.27 138.33-3.2 136.61-2.12 134.58-1.53 132.56-0.93 130.29-0.93L130.29-0.93Q128.09-0.93 126.1-1.49 124.11-2.05 122.38-3.06 120.64-4.08 119.24-5.51 117.84-6.93 116.85-8.68 115.86-10.42 115.31-12.43 114.76-14.43 114.76-16.6L114.76-16.6Q114.76-18.73 115.27-20.76 115.79-22.8 116.75-24.61 117.71-26.42 119.08-27.93 120.45-29.44 122.15-30.54 123.84-31.64 125.82-32.25 127.8-32.86 129.99-32.86L129.99-32.86Q133.53-32.86 136.45-31.76 139.37-30.66 141.43-28.63 143.5-26.59 144.63-23.69 145.77-20.8 145.77-17.24ZM134.93-16.6L134.93-16.6Q134.93-17.65 134.62-18.64 134.32-19.63 133.73-20.4 133.14-21.17 132.28-21.64 131.41-22.12 130.29-22.12L130.29-22.12Q129.14-22.12 128.24-21.7 127.33-21.29 126.69-20.57 126.04-19.85 125.7-18.88 125.36-17.92 125.36-16.85L125.36-16.85Q125.36-15.82 125.65-14.79 125.94-13.77 126.53-12.94 127.11-12.11 127.98-11.6 128.85-11.08 129.99-11.08L129.99-11.08Q131.14-11.08 132.06-11.54 132.97-11.99 133.61-12.76 134.24-13.53 134.58-14.53 134.93-15.53 134.93-16.6ZM181.43-34.33L181.43-34.33 180.06-24.02Q179.36-24.22 178.65-24.29 177.94-24.37 177.23-24.37L177.23-24.37Q175.42-24.37 173.79-23.89 172.15-23.41 170.9-22.44 169.64-21.46 168.89-20 168.15-18.53 168.15-16.55L168.15-16.55Q168.15-15.28 168.55-14.36 168.95-13.43 169.69-12.82 170.42-12.21 171.42-11.91 172.42-11.62 173.62-11.62L173.62-11.62Q174.52-11.62 175.5-11.82 176.47-12.01 177.43-12.33 178.38-12.65 179.28-13.06 180.19-13.48 180.94-13.92L180.94-13.92 179.97-2.44Q179.01-1.95 177.9-1.57 176.79-1.2 175.62-0.92 174.45-0.63 173.28-0.49 172.1-0.34 171.03-0.34L171.03-0.34Q167.93-0.34 165.24-1.49 162.56-2.64 160.58-4.64 158.6-6.64 157.47-9.36 156.33-12.08 156.33-15.23L156.33-15.23Q156.33-19.41 157.53-23.11 158.73-26.81 161.04-29.59 163.36-32.37 166.79-33.98 170.22-35.6 174.69-35.6L174.69-35.6Q176.38-35.6 178.15-35.33 179.92-35.06 181.43-34.33ZM204.43-13.92L204.43-13.92 203.4-3.08 182.84-1.46Q182.99-9.99 183.17-18.41 183.36-26.83 183.63-35.35L183.63-35.35 196.32-35.35Q195.76-30 195.25-24.67 194.73-19.34 194.51-13.92L194.51-13.92Q195.66-13.87 196.78-13.87 197.91-13.87 199.05-13.87L199.05-13.87Q200.42-13.87 201.74-13.89 203.06-13.92 204.43-13.92ZM205.77-33.69L218.75-34.38 216.07-1.12 205.77-0.59 205.77-33.69ZM244.36-34.33L244.36-34.33 243-24.02Q242.29-24.22 241.58-24.29 240.87-24.37 240.16-24.37L240.16-24.37Q238.36-24.37 236.72-23.89 235.08-23.41 233.83-22.44 232.57-21.46 231.83-20 231.08-18.53 231.08-16.55L231.08-16.55Q231.08-15.28 231.48-14.36 231.89-13.43 232.62-12.82 233.35-12.21 234.35-11.91 235.35-11.62 236.55-11.62L236.55-11.62Q237.45-11.62 238.43-11.82 239.41-12.01 240.36-12.33 241.31-12.65 242.21-13.06 243.12-13.48 243.87-13.92L243.87-13.92 242.9-2.44Q241.95-1.95 240.83-1.57 239.72-1.2 238.55-0.92 237.38-0.63 236.21-0.49 235.04-0.34 233.96-0.34L233.96-0.34Q230.86-0.34 228.18-1.49 225.49-2.64 223.51-4.64 221.54-6.64 220.4-9.36 219.26-12.08 219.26-15.23L219.26-15.23Q219.26-19.41 220.46-23.11 221.66-26.81 223.98-29.59 226.3-32.37 229.73-33.98 233.16-35.6 237.62-35.6L237.62-35.6Q239.31-35.6 241.08-35.33 242.85-35.06 244.36-34.33ZM264.55-35.94L276.85-34.96 265.09-18.7 275-1.42 263.67 0.59 256.25-9.96 255.86 1.07 245.7 1.46 246.48-35.94 257.86-35.3 256.98-24.27 264.55-35.94ZM277.22-35.21L299.73-35.21Q299.58-32.91 299.46-30.66 299.34-28.42 299.14-26.12L299.14-26.12 288.79-25.59 288.55-22.51 295.82-22.51 295.29-14.94 287.96-14.7 287.72-11.13 293.77-11.13 298.07-11.13Q297.92-8.45 297.76-5.8 297.6-3.15 297.48-0.49L297.48-0.49 276.44 0 277.22-35.21ZM329.17-23.54L329.17-23.54Q329.17-21.63 328.84-20.08 328.51-18.53 327.8-17.24 327.09-15.94 325.97-14.84 324.85-13.75 323.26-12.74L323.26-12.74 329.07-2.39 318.09-0.24 314.33-10.64 311.3-10.55 310.86-0.39 300.36-0.39Q300.48-5.96 300.59-11.47 300.7-16.99 300.85-22.56L300.85-22.56Q300.9-25.37 300.95-28.13 301-30.88 301.14-33.69L301.14-33.69Q302.85-34.33 304.51-34.74 306.17-35.16 307.84-35.39 309.52-35.62 311.24-35.71 312.96-35.79 314.76-35.79L314.76-35.79Q317.55-35.79 320.15-35.02 322.75-34.25 324.75-32.71 326.75-31.18 327.96-28.88 329.17-26.59 329.17-23.54ZM318.23-22.75L318.23-22.75Q318.23-23.78 317.95-24.63 317.67-25.49 317.12-26.11 316.57-26.73 315.75-27.09 314.94-27.44 313.84-27.44L313.84-27.44Q313.35-27.44 312.89-27.38 312.42-27.32 311.98-27.2L311.98-27.2 311.59-18.12 312.18-18.12Q313.23-18.12 314.31-18.38 315.4-18.65 316.27-19.21 317.13-19.78 317.68-20.65 318.23-21.53 318.23-22.75Z" opacity="1" transform="matrix(1,0,0,1,0,0)" fill="#252525" class="undefined-text-0" data-fill-palette-color="primary" id="text-0"></path></svg></g></svg></g></svg></g></svg></g><g transform="matrix(1,0,0,1,147.31459609933796,0)"><svg viewBox="0 0 102.86840780132398 62.168109612472165" height="62.168109612472165" width="102.86840780132398"><g><svg xmlns="http://www.w3.org/2000/svg" xmlns:xlink="http://www.w3.org/1999/xlink" version="1.1" x="8" y="0" viewBox="6 13.299999999999999 58.687213595499955 42.00000000000001" enable-background="new 0 0 70.7 70.7" xml:space="preserve" height="62.168109612472165" width="86.86840780132398" class="icon-icon-0" data-fill-palette-color="accent" id="icon-0"><path d="M63.8 28.2l-0.3-0.7-0.8 0.1c-3.2 0.6-6.3 0.8-7.9 0.9 0-5-1.3-8.9-3.8-11.6-3.2-3.4-7.5-3.6-8.7-3.6-0.2 0-0.4 0-0.4 0l-24.4 8.2c-1.9 0.8-3.5 1.6-4.8 2.6C8.1 27.2 6 31.7 6 38.2c0 9.6 8.3 17.1 18.9 17.1 7.9 0 10.1-0.4 12.8-0.9 0.8-0.1 1.7-0.3 2.8-0.5l0.2 0L64.6 38l0-0.5C65 30.9 63.9 28.3 63.8 28.2zM61.9 29.8L39.2 44.6c-2 0.5-6.4 1-9.8 1.4 0.7-0.2 1.3-0.5 1.7-0.6 8-3.7 21.4-13.7 22.9-14.9C54.7 30.5 58.1 30.4 61.9 29.8zM42.2 15.3c0.7 0 4.6 0.1 7.4 3 2.3 2.4 3.4 6.2 3.2 11.2l0 0.7c-3 2.3-14.9 10.9-22.1 14.3-0.2 0.1-0.6 0.2-1 0.4 0.2-0.2 0.3-0.3 0.4-0.5 3.9-5.1 3.9-10.9 0.1-15.7-2.4-3.1-6.5-5.4-10.8-5.7L42.2 15.3zM37.4 52.4c-2.5 0.5-4.7 0.8-12.4 0.8C15.4 53.3 8 46.6 8 38.2c0-5.8 1.8-9.7 5.8-12.5 0.8-0.5 1.7-1 2.6-1.5 5.1-1 10.2 1.5 13 5.1 3.5 4.4 3.4 9.8-0.1 14.5C27.6 46 24 47 20.4 46.2c-3.4-0.7-8.2-4.3-6.9-10.9 0.4-2.1 1.7-4 3.5-5.1 1.1-0.7 2.9-1.3 5.3-0.5 3.4 1.1 5 4 4.2 7.6-0.3 1.7-1.4 2.8-2.9 3-1.4 0.2-3-0.3-3.6-1.4-0.6-1-0.4-2.2 0.7-3.5 0.2-0.2 0.1-0.5-0.1-0.7-0.2-0.2-0.5-0.1-0.7 0.1-1.7 2.2-1.2 3.9-0.7 4.7 0.8 1.4 2.8 2.2 4.6 1.9 1.9-0.3 3.3-1.7 3.7-3.8 1-4.9-1.9-7.8-4.9-8.8-2.1-0.7-4.2-0.5-6.1 0.6-2 1.2-3.5 3.3-4 5.8-1.4 7.3 4 11.3 7.7 12.1 0.8 0.2 1.7 0.3 2.5 0.3 0.5 0 1 0 1.4-0.1 0.1 0.1 0.2 0.1 0.3 0.1 0 0 0 0 0 0 0.4 0 10.4-0.9 14.4-1.8l0.8 6.3C38.8 52.2 38.1 52.3 37.4 52.4zM62.6 36.9L40.7 51.5 40 45.3l22.4-14.6C62.6 31.9 62.8 34 62.6 36.9z" fill="#252525" data-fill-palette-color="accent"></path></svg></g></svg></g><g><rect width="70.781476099338" height="4.0567180045889" y="57.11139160788326" x="250.18300390066196" fill="#252525" data-fill-palette-color="secondary"></rect><rect width="70.781476099338" height="4.0567180045889" y="57.11139160788326" x="76.53311999999997" fill="#252525" data-fill-palette-color="secondary"></rect></g></svg></g><defs></defs></svg><rect width="395.52" height="131.78940224276488" fill="none" stroke="none" visibility="hidden"></rect></g></svg></g></svg>